# Blender v2.79 (sub 0) OBJ File: ''
# www.blender.org
mtllib star0.mtl
o Circle
v 0.586350 0.007000 0.802166
v 0.581713 0.007000 0.805534
v 0.577734 0.000000 0.795182
v 0.450236 0.007000 0.152675
v 0.443070 0.000000 0.152605
v 0.446220 0.000000 0.138718
v 0.453989 0.007000 0.141125
v -0.586350 0.007000 0.802166
v -0.577734 0.000000 0.795182
v -0.581713 0.007000 0.805534
v 0.006072 0.007000 0.475380
v -0.006072 0.007000 0.475380
v -0.007000 0.000000 0.467842
v 0.007000 0.000000 0.467842
v -0.450236 0.007000 0.152675
v -0.453989 0.007000 0.141125
v -0.446220 0.000000 0.138718
v -0.443070 0.000000 0.152605
v -0.007000 0.000000 0.150870
v -0.007000 0.000000 0.136859
v 0.007000 0.000000 0.136859
v 0.007000 0.000000 0.150870
v 0.586350 0.140000 0.802166
v 0.577734 0.147000 0.795182
v 0.581713 0.140000 0.805534
v 0.450236 0.140000 0.152675
v 0.453989 0.140000 0.141125
v 0.446220 0.147000 0.138718
v 0.443070 0.147000 0.152605
v -0.586350 0.140000 0.802166
v -0.581713 0.140000 0.805534
v -0.577734 0.147000 0.795182
v 0.006072 0.140000 0.475380
v 0.007000 0.147000 0.467842
v -0.007000 0.147000 0.467842
v -0.006072 0.140000 0.475380
v -0.450236 0.140000 0.152675
v -0.443070 0.147000 0.152605
v -0.446220 0.147000 0.138718
v -0.453989 0.140000 0.141125
v -0.007000 0.147000 0.150870
v 0.007000 0.147000 0.150870
v 0.007000 0.147000 0.136859
v -0.007000 0.147000 0.136859
vn -0.4975 0.0000 0.8675
vn 0.4975 0.0000 0.8675
vn 0.0000 1.0000 -0.0000
vn 0.0000 -1.0000 0.0000
vn -0.9787 0.0000 -0.2051
vn 0.3215 -0.8371 0.4425
vn 0.6570 -0.7325 0.1783
vn -0.3215 -0.8371 0.4425
vn 0.0000 -0.7327 0.6805
vn -0.6570 -0.7325 0.1783
vn 0.3215 0.8371 0.4425
vn 0.6570 0.7325 0.1783
vn -0.3215 0.8371 0.4425
vn 0.0000 0.7327 0.6805
vn -0.6570 0.7325 0.1783
vn 0.6921 -0.7071 -0.1450
vn -0.3518 -0.7071 0.6134
vn -0.6921 -0.7071 -0.1450
vn 0.3518 -0.7071 0.6134
vn 0.6921 0.7071 -0.1450
vn -0.3518 0.7071 0.6134
vn -0.6921 0.7071 -0.1450
vn 0.3518 0.7071 0.6134
vn 0.5878 0.0000 0.8090
vn 0.9511 0.0000 0.3090
vn -0.5878 0.0000 0.8090
vn 0.0000 0.0000 1.0000
vn -0.9511 0.0000 0.3090
vn 0.9787 0.0000 -0.2051
vn 0.0000 0.0000 -1.0000
vn 0.2960 0.0000 -0.9552
vn 0.2960 0.0000 0.9552
usemtl Start1
s off
f 11//1 2//1 25//1 33//1
f 10//2 12//2 36//2 31//2
f 32//3 35//3 41//3 38//3
f 3//4 14//4 22//4 5//4
f 9//4 18//4 19//4 13//4
f 24//3 29//3 42//3 34//3
f 15//5 8//5 30//5 37//5
f 1//6 2//6 3//6
f 4//7 5//7 6//7 7//7
f 8//8 9//8 10//8
f 11//9 12//9 13//9 14//9
f 15//10 16//10 17//10 18//10
f 19//4 20//4 21//4 22//4
f 23//11 24//11 25//11
f 26//12 27//12 28//12 29//12
f 30//13 31//13 32//13
f 33//14 34//14 35//14 36//14
f 37//15 38//15 39//15 40//15
f 41//3 42//3 43//3 44//3
f 4//16 1//16 3//16 5//16
f 2//17 11//17 14//17 3//17
f 22//4 14//4 13//4 19//4
f 5//4 22//4 21//4 6//4
f 18//18 9//18 8//18 15//18
f 9//19 13//19 12//19 10//19
f 17//4 20//4 19//4 18//4
f 29//20 24//20 23//20 26//20
f 24//21 34//21 33//21 25//21
f 41//3 35//3 34//3 42//3
f 28//3 43//3 42//3 29//3
f 37//22 30//22 32//22 38//22
f 31//23 36//23 35//23 32//23
f 38//3 41//3 44//3 39//3
f 1//24 23//24 25//24 2//24
f 7//25 27//25 26//25 4//25
f 10//26 31//26 30//26 8//26
f 11//27 33//27 36//27 12//27
f 15//28 37//28 40//28 16//28
f 1//29 4//29 26//29 23//29
f 20//30 17//30 39//30 44//30 43//30 28//30 6//30 21//30
f 7//31 6//31 28//31 27//31
f 16//32 17//32 39//32 40//32
