# Blender v2.79 (sub 0) OBJ File: ''
# www.blender.org
mtllib star3_0.mtl
o Circle.001_Circle.003
v -0.290452 0.039942 -0.399773
v -0.263819 0.000000 -0.363115
v -0.282651 0.011699 -0.389036
v -0.863847 0.000000 -0.280681
v -0.951057 0.039942 -0.309017
v -0.925514 0.011699 -0.300718
v -0.426867 0.000000 0.138698
v -0.469962 0.039942 0.152700
v -0.457340 0.011699 0.148599
v -0.533887 0.000000 0.734832
v -0.587785 0.039942 0.809017
v -0.571999 0.011699 0.787289
v -0.312753 0.000000 0.616373
v -0.293893 0.039942 0.651582
v -0.299417 0.011699 0.641270
v -0.863847 0.200000 -0.280681
v -0.951057 0.160058 -0.309017
v -0.925513 0.188301 -0.300718
v -0.469962 0.160058 0.152700
v -0.426867 0.200000 0.138698
v -0.457340 0.188301 0.148599
v -0.533887 0.200000 0.734832
v -0.587785 0.160058 0.809017
v -0.571999 0.188301 0.787289
v -0.293893 0.160058 0.651582
v -0.312753 0.200000 0.616373
v -0.299417 0.188301 0.641270
v -0.263819 0.200000 -0.363115
v -0.290452 0.160058 -0.399773
v -0.282651 0.188301 -0.389036
vn 0.0000 -1.0000 0.0000
vn 0.4722 0.0000 0.8815
vn 0.0000 1.0000 0.0000
vn -0.6924 0.0000 0.7215
vn -0.1361 0.0000 -0.9907
vn -0.9843 0.0000 -0.1767
vn 1.0000 -0.0000 0.0084
vn -0.1257 -0.3827 -0.9153
vn -0.0521 -0.9239 -0.3791
vn -0.6397 -0.3827 0.6666
vn -0.2650 -0.9239 0.2761
vn -0.9093 -0.3827 -0.1632
vn -0.3767 -0.9239 -0.0676
vn 0.4363 -0.3827 0.8144
vn 0.1807 -0.9239 0.3373
vn -0.2650 0.9239 0.2761
vn -0.6397 0.3827 0.6666
vn -0.3767 0.9239 -0.0676
vn -0.9093 0.3827 -0.1632
vn 0.1807 0.9239 0.3373
vn 0.4363 0.3827 0.8144
vn -0.0521 0.9239 -0.3791
vn -0.1257 0.3827 -0.9153
usemtl None
s off
f 4//1 2//1 7//1
f 11//2 14//2 25//2 23//2
f 10//1 7//1 13//1
f 16//3 20//3 28//3
f 22//3 26//3 20//3
f 26//3 28//3 20//3
f 5//4 8//4 19//4 17//4
f 7//1 2//1 13//1
f 1//5 5//5 17//5 29//5
f 8//6 11//6 23//6 19//6
f 14//7 15//7 13//7 2//7 3//7 1//7 29//7 30//7 28//7 26//7 27//7 25//7
f 5//8 1//8 3//8 6//8
f 6//9 3//9 2//9 4//9
f 8//10 5//10 6//10 9//10
f 9//11 6//11 4//11 7//11
f 11//12 8//12 9//12 12//12
f 12//13 9//13 7//13 10//13
f 14//14 11//14 12//14 15//14
f 15//15 12//15 10//15 13//15
f 20//16 16//16 18//16 21//16
f 21//17 18//17 17//17 19//17
f 22//18 20//18 21//18 24//18
f 24//19 21//19 19//19 23//19
f 26//20 22//20 24//20 27//20
f 27//21 24//21 23//21 25//21
f 16//22 28//22 30//22 18//22
f 18//23 30//23 29//23 17//23
