# Blender v2.79 (sub 0) OBJ File: ''
# www.blender.org
mtllib star1.mtl
o Circle.002
v 0.944097 0.007000 -0.309769
v 0.945868 0.007000 -0.304318
v 0.934793 0.000000 -0.303733
v 0.446220 0.000000 0.138718
v 0.453989 0.007000 0.141125
v 0.284334 0.007000 -0.381021
v 0.276964 0.000000 -0.374776
v 0.266514 0.000000 -0.388878
v 0.274509 0.007000 -0.388159
v -0.944097 0.007000 -0.309769
v -0.934793 0.000000 -0.303733
v -0.945868 0.007000 -0.304318
v -0.453989 0.007000 0.141125
v -0.446220 0.000000 0.138718
v -0.284334 0.007000 -0.381021
v -0.274509 0.007000 -0.388159
v -0.266514 0.000000 -0.388878
v -0.276964 0.000000 -0.374776
v -0.007000 0.000000 -0.390225
v 0.007000 0.000000 -0.390225
v 0.007000 0.000000 -0.376224
v -0.007000 0.000000 -0.376224
v -0.007000 0.000000 0.136859
v 0.007000 0.000000 0.136859
v 0.944097 0.140000 -0.309769
v 0.934793 0.147000 -0.303733
v 0.945868 0.140000 -0.304318
v 0.453989 0.140000 0.141125
v 0.446220 0.147000 0.138718
v 0.284334 0.140000 -0.381021
v 0.274509 0.140000 -0.388159
v 0.266514 0.147000 -0.388878
v 0.276964 0.147000 -0.374776
v -0.944097 0.140000 -0.309769
v -0.945868 0.140000 -0.304318
v -0.934793 0.147000 -0.303733
v -0.446220 0.147000 0.138718
v -0.453989 0.140000 0.141125
v -0.284334 0.140000 -0.381021
v -0.276964 0.147000 -0.374776
v -0.266514 0.147000 -0.388878
v -0.274509 0.140000 -0.388159
v -0.007000 0.147000 -0.390225
v -0.007000 0.147000 -0.376224
v 0.007000 0.147000 -0.376224
v 0.007000 0.147000 -0.390225
v 0.007000 0.147000 0.136859
v -0.007000 0.147000 0.136859
vn 0.6713 0.0000 0.7412
vn -0.6713 0.0000 0.7412
vn 0.0000 1.0000 0.0000
vn 0.0000 -1.0000 0.0000
vn 0.1074 0.0000 -0.9942
vn -0.1074 0.0000 -0.9942
vn 0.5202 -0.8372 -0.1690
vn 0.4948 -0.7295 -0.4723
vn -0.5202 -0.8372 -0.1690
vn -0.4948 -0.7295 -0.4723
vn 0.5202 0.8372 -0.1690
vn 0.4948 0.7295 -0.4723
vn -0.5202 0.8372 -0.1690
vn -0.4948 0.7295 -0.4723
vn 0.0759 -0.7071 -0.7030
vn 0.4746 -0.7071 0.5241
vn -0.0759 -0.7071 -0.7030
vn -0.4746 -0.7071 0.5241
vn 0.0759 0.7071 -0.7030
vn 0.4747 0.7071 0.5241
vn -0.0759 0.7071 -0.7030
vn -0.4747 0.7071 0.5241
vn 0.9511 0.0000 -0.3090
vn 0.5878 0.0000 -0.8090
vn -0.9511 0.0000 -0.3090
vn -0.5878 0.0000 -0.8090
vn -0.0000 0.0000 -1.0000
usemtl Start2
s off
f 5//1 2//1 27//1 28//1
f 12//2 13//2 38//2 35//2
f 26//3 33//3 45//3 47//3 29//3
f 36//3 37//3 48//3 44//3 40//3
f 3//4 4//4 24//4 21//4 7//4
f 1//5 6//5 30//5 25//5
f 11//4 18//4 22//4 23//4 14//4
f 15//6 10//6 34//6 39//6
f 1//7 2//7 3//7
f 6//8 7//8 8//8 9//8
f 10//9 11//9 12//9
f 15//10 16//10 17//10 18//10
f 19//4 20//4 21//4 22//4
f 25//11 26//11 27//11
f 30//12 31//12 32//12 33//12
f 34//13 35//13 36//13
f 39//14 40//14 41//14 42//14
f 43//3 44//3 45//3 46//3
f 6//15 1//15 3//15 7//15
f 2//16 5//16 4//16 3//16
f 21//4 24//4 23//4 22//4
f 7//4 21//4 20//4 8//4
f 18//17 11//17 10//17 15//17
f 11//18 14//18 13//18 12//18
f 17//4 19//4 22//4 18//4
f 33//19 26//19 25//19 30//19
f 26//20 29//20 28//20 27//20
f 44//3 48//3 47//3 45//3
f 32//3 46//3 45//3 33//3
f 39//21 34//21 36//21 40//21
f 35//22 38//22 37//22 36//22
f 40//3 44//3 43//3 41//3
f 1//23 25//23 27//23 2//23
f 9//24 31//24 30//24 6//24
f 12//25 35//25 34//25 10//25
f 15//26 39//26 42//26 16//26
f 20//27 19//27 17//27 16//27 42//27 41//27 43//27 46//27 32//27 31//27 9//27 8//27
