# Blender v2.79 (sub 0) OBJ File: ''
# www.blender.org
mtllib star3_2.mtl
o Circle.002_Circle.004
v 0.587785 0.039942 0.809017
v 0.533887 0.000000 0.734832
v 0.571999 0.011699 0.787289
v 0.426867 0.000000 0.138698
v 0.469962 0.039942 0.152700
v 0.457340 0.011699 0.148599
v 0.863847 0.000000 -0.280681
v 0.951056 0.039942 -0.309017
v 0.925513 0.011699 -0.300718
v 0.263818 0.000000 -0.363115
v 0.290452 0.039942 -0.399773
v 0.282651 0.011699 -0.389036
v 0.293893 0.039942 0.651582
v 0.312753 0.000000 0.616373
v 0.299417 0.011699 0.641270
v 0.469962 0.160058 0.152700
v 0.426867 0.200000 0.138698
v 0.457340 0.188301 0.148599
v 0.533887 0.200000 0.734832
v 0.587785 0.160058 0.809017
v 0.571999 0.188301 0.787289
v 0.951056 0.160058 -0.309017
v 0.863847 0.200000 -0.280681
v 0.925513 0.188301 -0.300718
v 0.290452 0.160058 -0.399773
v 0.263818 0.200000 -0.363115
v 0.282651 0.188301 -0.389036
v 0.312753 0.200000 0.616373
v 0.293893 0.160058 0.651582
v 0.299417 0.188301 0.641270
vn 0.0000 -1.0000 0.0000
vn 0.9843 0.0000 -0.1767
vn 0.0000 1.0000 0.0000
vn -0.4722 0.0000 0.8815
vn 0.6924 0.0000 0.7215
vn 0.1361 0.0000 -0.9907
vn -1.0000 0.0000 0.0084
vn 0.9093 -0.3827 -0.1632
vn 0.3767 -0.9239 -0.0676
vn 0.6397 -0.3827 0.6666
vn 0.2650 -0.9239 0.2761
vn 0.1257 -0.3827 -0.9153
vn 0.0521 -0.9239 -0.3791
vn -0.4363 -0.3827 0.8144
vn -0.1807 -0.9239 0.3373
vn 0.3767 0.9239 -0.0676
vn 0.9093 0.3827 -0.1632
vn 0.2650 0.9239 0.2761
vn 0.6397 0.3827 0.6666
vn 0.0521 0.9239 -0.3791
vn 0.1257 0.3827 -0.9153
vn -0.1807 0.9239 0.3373
vn -0.4363 0.3827 0.8144
usemtl None
s off
f 10//1 4//1 14//1
f 1//2 5//2 16//2 20//2
f 26//3 28//3 17//3
f 23//3 26//3 17//3
f 7//1 4//1 10//1
f 13//4 1//4 20//4 29//4
f 5//5 8//5 22//5 16//5
f 8//6 11//6 25//6 22//6
f 19//3 17//3 28//3
f 11//7 12//7 10//7 14//7 15//7 13//7 29//7 30//7 28//7 26//7 27//7 25//7
f 5//8 1//8 3//8 6//8
f 6//9 3//9 2//9 4//9
f 8//10 5//10 6//10 9//10
f 9//11 6//11 4//11 7//11
f 11//12 8//12 9//12 12//12
f 12//13 9//13 7//13 10//13
f 1//14 13//14 15//14 3//14
f 3//15 15//15 14//15 2//15
f 17//16 19//16 21//16 18//16
f 18//17 21//17 20//17 16//17
f 23//18 17//18 18//18 24//18
f 24//19 18//19 16//19 22//19
f 26//20 23//20 24//20 27//20
f 27//21 24//21 22//21 25//21
f 19//22 28//22 30//22 21//22
f 21//23 30//23 29//23 20//23
f 2//1 14//1 4//1
