# Blender v2.79 (sub 0) OBJ File: ''
# www.blender.org
mtllib emptyRoom.mtl
o Plane
v -6.096150 -0.000001 6.096150
v 6.096150 -0.000001 6.096150
v 6.096150 0.000001 -6.096150
v -6.096150 0.000001 -6.096150
v -6.396642 -0.000001 6.396642
v 6.396642 -0.000001 6.396642
v 6.396642 3.366937 6.396643
v -6.396642 3.366937 6.396643
v 6.396642 0.000001 -6.396642
v -6.396642 0.000001 -6.396642
v -6.396642 3.366939 -6.396642
v 6.396642 3.366939 -6.396642
v -6.096150 0.156134 6.096150
v -6.096150 0.156136 -6.096150
v -6.096150 3.366939 -6.096149
v -6.096150 3.366937 6.096150
v 6.096150 0.156136 -6.096150
v 6.096150 0.156134 6.096150
v 6.096150 3.366937 6.096150
v 6.096150 3.366939 -6.096149
v 6.396642 3.523376 6.396643
v -6.396642 3.523376 6.396643
v -6.396642 3.523378 -6.396642
v 6.396642 3.523378 -6.396642
v -6.008251 0.000001 -6.008251
v -6.008251 -0.000001 6.008251
v -6.008251 0.156136 -6.008251
v 6.008251 0.156136 -6.008251
v 6.008251 -0.000001 6.008251
v 6.008251 0.000001 -6.008251
v -6.008251 0.156134 6.008251
v 6.008251 0.156134 6.008251
v -6.096150 3.523376 6.096150
v -6.096150 3.523378 -6.096149
v 6.096150 3.523376 6.096150
v 6.096150 3.523378 -6.096149
vt 0.349764 0.322728
vt 0.349764 0.000000
vt 0.683097 0.000000
vt 0.683097 0.322728
vt 0.000000 1.000000
vt 0.000000 0.661364
vt 0.092051 0.661364
vt 0.092051 1.000000
vt 0.875753 0.000000
vt 0.875753 0.338636
vt 0.783702 0.338636
vt 0.783702 0.000000
vt 0.359675 0.661364
vt 0.359675 0.984092
vt 0.271893 0.984092
vt 0.271893 0.661364
vt 0.271892 0.661364
vt 0.271893 0.984092
vt 0.184110 0.984092
vt 0.184110 0.661364
vt 0.096328 0.661364
vt 0.096328 1.000000
vt 0.779425 0.338636
vt 0.779425 0.000000
vt 0.447457 0.661364
vt 0.447457 0.984092
vt 0.359675 0.984092
vt 0.359675 0.661364
vt 0.184110 0.661364
vt 0.184110 0.984092
vt 0.096328 0.984092
vt 0.096328 0.661364
vt 0.972081 0.000000
vt 0.972081 0.338636
vt 0.880030 0.338636
vt 0.880030 0.000000
vt 0.683097 0.338636
vt 0.683097 0.000000
vt 0.775148 0.000000
vt 0.775148 0.338636
vt 1.000000 0.338636
vt 1.000000 0.661364
vt 0.997597 0.659037
vt 0.997597 0.340963
vt 0.333333 0.338636
vt 0.333333 0.661364
vt 0.330930 0.659037
vt 0.330930 0.340963
vt 0.666667 0.661364
vt 0.666667 0.338636
vt 0.669070 0.340963
vt 0.669070 0.659037
vt 0.000000 0.661364
vt 0.002403 0.659037
vt 0.984887 0.000000
vt 0.984887 0.318075
vt 0.980619 0.318075
vt 0.980619 0.000000
vt 0.976350 0.318075
vt 0.976350 0.000000
vt 0.980619 0.000000
vt 0.980619 0.318075
vt 0.972081 0.318075
vt 0.972081 0.000000
vt 0.976350 0.000000
vt 0.976350 0.318075
vt 0.984887 0.000000
vt 0.989156 0.000000
vt 0.989156 0.318075
vt 0.000000 0.338636
vt 0.002403 0.340963
vt 0.008215 0.330682
vt 0.341549 0.330682
vt 0.349764 0.338636
vt 0.000000 0.338636
vt 0.008215 0.007954
vt 0.000000 0.000000
vt 0.341549 0.007954
vt 0.349764 0.000000
vt 0.875753 0.338636
vt 0.875753 0.000000
vt 0.779425 0.000000
vt 0.666667 0.338636
vt 0.666667 0.661364
vt 0.333333 0.661364
vt 0.333333 0.338636
vn 0.0000 1.0000 0.0000
vn 0.0000 -0.0000 1.0000
vn 0.0000 0.0000 -1.0000
vn 1.0000 0.0000 0.0000
vn -1.0000 0.0000 0.0000
vn 0.0000 -1.0000 -0.0000
usemtl None.001
s 1
f 1/1/1 2/2/1 3/3/1 4/4/1
f 5/5/2 6/6/2 7/7/2 8/8/2
f 9/9/3 10/10/3 11/11/3 12/12/3
f 13/13/4 14/14/4 15/15/4 16/16/4
f 17/17/5 18/18/5 19/19/5 20/20/5
f 8/8/2 7/7/2 21/21/2 22/22/2
f 12/12/3 11/11/3 23/23/3 24/24/3
f 14/25/2 17/26/2 20/27/2 15/28/2
f 18/29/3 13/30/3 16/31/3 19/32/3
f 6/33/4 9/34/4 12/35/4 7/36/4
f 10/37/5 5/38/5 8/39/5 11/40/5
f 1/41/6 4/42/6 25/43/6 26/44/6
f 17/45/1 14/46/1 27/47/1 28/48/1
f 3/49/6 2/50/6 29/51/6 30/52/6
f 14/46/1 13/53/1 31/54/1 27/47/1
f 29/55/3 26/56/3 31/57/3 32/58/3
f 25/59/2 30/60/2 28/61/2 27/62/2
f 30/63/5 29/64/5 32/65/5 28/66/5
f 26/56/4 25/67/4 27/68/4 31/69/4
f 4/42/6 3/49/6 30/52/6 25/43/6
f 18/70/1 17/45/1 28/48/1 32/71/1
f 2/50/6 1/41/6 26/44/6 29/51/6
f 13/53/1 18/70/1 32/71/1 31/54/1
f 33/72/1 34/73/1 23/74/1 22/75/1
f 35/76/1 33/72/1 22/75/1 21/77/1
f 36/78/1 35/76/1 21/77/1 24/79/1
f 34/73/1 36/78/1 24/79/1 23/74/1
f 7/36/4 12/35/4 24/80/4 21/81/4
f 11/40/5 8/39/5 22/82/5 23/23/5
f 34/73/1 33/72/1 35/76/1 36/78/1
f 15/83/6 20/84/6 19/85/6 16/86/6
